<svg width="28" height="28" viewBox="0 0 28 28" fill="none" xmlns="http://www.w3.org/2000/svg">
<path d="M8.22559 9.66724L12.5589 14.0006L8.22559 18.3339M15.4478 18.3339H19.7811" stroke="white" stroke-width="2" stroke-linecap="round" stroke-linejoin="round"/>
<path d="M1 10.2444C1 7.00889 1 5.39111 1.62978 4.15467C2.1837 3.06756 3.06756 2.1837 4.15467 1.62978C5.39111 1 7.00889 1 10.2444 1H17.7556C20.9911 1 22.6089 1 23.8453 1.62978C24.9324 2.1837 25.8163 3.06756 26.3702 4.15467C27 5.39111 27 7.00889 27 10.2444V17.7556C27 20.9911 27 22.6089 26.3702 23.8453C25.8163 24.9324 24.9324 25.8163 23.8453 26.3702C22.6089 27 20.9911 27 17.7556 27H10.2444C7.00889 27 5.39111 27 4.15467 26.3702C3.06756 25.8163 2.1837 24.9324 1.62978 23.8453C1 22.6089 1 20.9911 1 17.7556V10.2444Z" stroke="white" stroke-width="2" stroke-linecap="round" stroke-linejoin="round"/>
</svg>
