<svg width="50" height="50" viewBox="0 0 50 50" fill="none" xmlns="http://www.w3.org/2000/svg">
<path d="M0 14.3129V8.41934C0 5.61289 0.706138 3.51258 2.11841 2.11841C3.5488 0.706138 5.68532 0 8.52797 0H14.2042V4.37262H8.58229C7.22433 4.37262 6.18323 4.73475 5.45899 5.45899C4.73475 6.16513 4.37262 7.22433 4.37262 8.63661V14.3129H0ZM17.925 4.37262V0H32.075V4.37262H17.925ZM45.6274 14.3129V8.63661C45.6274 7.22433 45.2562 6.16513 44.5139 5.45899C43.7896 4.73475 42.7576 4.37262 41.4177 4.37262H35.7958V0H41.472C44.3147 0 46.4422 0.706138 47.8544 2.11841C49.2848 3.51258 50 5.61289 50 8.41934V14.3129H45.6274ZM45.6274 31.9663V18.0337H50V31.9663H45.6274ZM35.7958 50V45.6274H41.4177C42.7576 45.6274 43.7896 45.2743 44.5139 44.5682C45.2562 43.8439 45.6274 42.7757 45.6274 41.3634V35.6871H50V41.5807C50 44.3871 49.2848 46.4874 47.8544 47.8816C46.4422 49.2939 44.3147 50 41.472 50H35.7958ZM17.925 50V45.6274H32.075V50H17.925ZM8.52797 50C5.68532 50 3.5488 49.2939 2.11841 47.8816C0.706138 46.4874 0 44.3871 0 41.5807V35.6871H4.37262V41.3634C4.37262 42.7757 4.73475 43.8439 5.45899 44.5682C6.18323 45.2743 7.22433 45.6274 8.58229 45.6274H14.2042V50H8.52797ZM0 31.9663V18.0337H4.37262V31.9663H0ZM10.6735 41.8794C9.82256 41.8794 9.17979 41.6621 8.74525 41.2276C8.3107 40.7749 8.09343 40.1141 8.09343 39.245V10.6735C8.09343 9.80445 8.3107 9.15263 8.74525 8.71809C9.17979 8.26544 9.82256 8.03911 10.6735 8.03911H39.3536C40.2046 8.03911 40.8474 8.26544 41.2819 8.71809C41.7165 9.15263 41.9337 9.80445 41.9337 10.6735V39.245C41.9337 40.1141 41.7165 40.7749 41.2819 41.2276C40.8474 41.6621 40.2046 41.8794 39.3536 41.8794H10.6735Z" fill="white"/>
</svg>
