<svg width="50" height="50" viewBox="0 0 50 50" fill="none" xmlns="http://www.w3.org/2000/svg">
<path d="M0.987494 49.0233C0.536459 48.5975 0.235768 48.0967 0.0854234 47.5207C-0.0398642 46.9196 -0.0273355 46.3311 0.12301 45.7551C0.273355 45.1791 0.561516 44.6782 0.987494 44.2524L20.2693 24.9812L0.987494 5.74756C0.561516 5.32181 0.273355 4.82094 0.12301 4.24493C-0.0273355 3.66892 -0.0398642 3.09291 0.0854234 2.5169C0.235768 1.91585 0.536459 1.40245 0.987494 0.976709C1.41347 0.550964 1.91462 0.26296 2.49095 0.112697C3.06727 -0.0375657 3.64359 -0.0375657 4.21991 0.112697C4.82129 0.26296 5.33497 0.550964 5.76095 0.976709L25.0051 20.2479L44.2869 0.976709C44.7129 0.550964 45.214 0.26296 45.7903 0.112697C46.3667 -0.0375657 46.943 -0.0375657 47.5193 0.112697C48.0956 0.26296 48.5968 0.550964 49.0228 0.976709C49.4738 1.40245 49.762 1.91585 49.8872 2.5169C50.0376 3.09291 50.0376 3.66892 49.8872 4.24493C49.762 4.82094 49.4738 5.32181 49.0228 5.74756L29.7786 24.9812L49.0228 44.2524C49.4738 44.6782 49.762 45.1791 49.8872 45.7551C50.0376 46.3311 50.0376 46.9196 49.8872 47.5207C49.762 48.0967 49.4738 48.5975 49.0228 49.0233C48.5968 49.449 48.0956 49.737 47.5193 49.8873C46.943 50.0376 46.3667 50.0376 45.7903 49.8873C45.214 49.737 44.7129 49.449 44.2869 49.0233L25.0051 29.7521L5.76095 49.0233C5.33497 49.449 4.82129 49.737 4.21991 49.8873C3.64359 50.0376 3.06727 50.0376 2.49095 49.8873C1.91462 49.737 1.41347 49.449 0.987494 49.0233Z" fill="white"/>
</svg>
