<svg width="99" height="99" viewBox="0 0 99 99" fill="none" xmlns="http://www.w3.org/2000/svg">
<path d="M20.625 43V16.5M78.375 82.5V76.5M20.625 82.5V72.5M78.375 47.5V16.5M49.5 22.5V16.5M49.5 82.5V51.5" stroke="white" stroke-width="5" stroke-linecap="round"/>
<path d="M20.625 66C25.1813 66 28.875 62.3063 28.875 57.75C28.875 53.1937 25.1813 49.5 20.625 49.5C16.0687 49.5 12.375 53.1937 12.375 57.75C12.375 62.3063 16.0687 66 20.625 66Z" stroke="white" stroke-width="5" stroke-linecap="round"/>
<path d="M49.5 45.375C54.0563 45.375 57.75 41.6813 57.75 37.125C57.75 32.5687 54.0563 28.875 49.5 28.875C44.9437 28.875 41.25 32.5687 41.25 37.125C41.25 41.6813 44.9437 45.375 49.5 45.375Z" stroke="white" stroke-width="5" stroke-linecap="round"/>
<path d="M78.375 70.125C82.9313 70.125 86.625 66.4313 86.625 61.875C86.625 57.3187 82.9313 53.625 78.375 53.625C73.8187 53.625 70.125 57.3187 70.125 61.875C70.125 66.4313 73.8187 70.125 78.375 70.125Z" stroke="white" stroke-width="5" stroke-linecap="round"/>
</svg>
