<svg width="52" height="43" viewBox="0 0 52 43" fill="none" xmlns="http://www.w3.org/2000/svg">
<path d="M24.8785 27.3774C26.0749 27.3774 27.0945 26.9474 27.9374 26.0875C28.7938 25.2275 29.2221 24.1969 29.2221 22.9957C29.2221 22.204 29.0249 21.4806 28.6307 20.8253C28.2364 20.1565 27.7062 19.6241 27.0401 19.2283C26.3876 18.8188 25.667 18.614 24.8785 18.614C23.6822 18.614 22.6558 19.0508 21.7993 19.9244C20.9565 20.7844 20.535 21.8082 20.535 22.9957C20.535 24.1969 20.9565 25.2275 21.7993 26.0875C22.6558 26.9474 23.6822 27.3774 24.8785 27.3774ZM16.9868 40.1335H46.4126C47.2554 40.1335 47.9352 39.8741 48.4518 39.3554C48.982 38.8367 49.2471 38.1405 49.2471 37.2669V34.728L41.3146 27.2955C40.9067 26.927 40.4649 26.654 39.9891 26.4765C39.5269 26.2854 39.051 26.1898 38.5616 26.1898C38.045 26.1898 37.5556 26.2786 37.0934 26.456C36.6448 26.6198 36.2029 26.8928 35.7679 27.275L27.5091 34.6666L24.1852 31.6567C23.791 31.3155 23.3831 31.0561 22.9617 30.8787C22.5539 30.7012 22.1256 30.6125 21.677 30.6125C21.2827 30.6125 20.8885 30.7012 20.4943 30.8787C20.1 31.0425 19.7058 31.295 19.3115 31.6363L14.1115 36.3251V37.2465C14.1115 38.1201 14.3698 38.8162 14.8864 39.3349C15.403 39.8673 16.1032 40.1335 16.9868 40.1335ZM17.7413 43C15.607 43 14.0028 42.4676 12.9288 41.4029C11.8684 40.3519 11.3382 38.7685 11.3382 36.6527V17.3446C11.3382 15.2288 11.8684 13.6454 12.9288 12.5943C14.0028 11.5296 15.607 10.9972 17.7413 10.9972H45.5969C47.7177 10.9972 49.315 11.5296 50.389 12.5943C51.463 13.659 52 15.2424 52 17.3446V36.6527C52 38.7685 51.463 40.3519 50.389 41.4029C49.315 42.4676 47.7177 43 45.5969 43H17.7413ZM3.50766 31.411L0.163361 12.3896C-0.203697 10.3147 0.0478056 8.66306 0.917867 7.43455C1.78793 6.20604 3.26975 5.40068 5.36334 5.01848L32.8111 0.165849C34.9046 -0.202705 36.5632 0.042998 37.7867 0.902957C39.0238 1.76292 39.8327 3.23031 40.2134 5.30513L40.7232 8.21261H17.7413C15.7973 8.21261 14.1387 8.57434 12.7657 9.2978C11.4062 10.0076 10.3594 11.045 9.62528 12.41C8.90476 13.775 8.5445 15.4199 8.5445 17.3446V36.4684C8.5445 36.5094 8.5445 36.5503 8.5445 36.5913C8.5445 36.6186 8.5445 36.6459 8.5445 36.6732C5.75758 36.4684 4.07864 34.7144 3.50766 31.411Z" fill="white"/>
</svg>
