<svg width="40" height="52" viewBox="0 0 40 52" fill="none" xmlns="http://www.w3.org/2000/svg">
<path d="M0 42.9555V6.01424C0 4.20996 0.583771 2.76038 1.75131 1.66548C2.91886 0.55516 4.45223 0 6.35143 0H23.6311C25.5458 0 27.087 0.55516 28.2545 1.66548C29.4221 2.76038 30.0058 4.20996 30.0058 6.01424V25.4217C29.6945 25.3909 29.3832 25.3677 29.0718 25.3523C28.7605 25.3215 28.4491 25.306 28.1378 25.306C27.8264 25.306 27.5151 25.3215 27.2037 25.3523C26.8924 25.3677 26.5733 25.3986 26.2464 25.4448L26.223 6.61566C26.223 5.69039 25.9584 4.98102 25.4291 4.48754C24.8998 3.97865 24.1448 3.7242 23.164 3.7242H6.8418C5.8455 3.7242 5.0827 3.97865 4.55342 4.48754C4.02413 4.98102 3.75949 5.69039 3.75949 6.61566V42.3541C3.75949 43.2794 4.02413 43.9887 4.55342 44.4822C5.0827 44.9911 5.8455 45.2456 6.8418 45.2456H14.0572C14.2752 45.9549 14.5476 46.618 14.8745 47.2349C15.2014 47.8517 15.5594 48.43 15.9486 48.9697H6.35143C4.45223 48.9697 2.91886 48.4146 1.75131 47.3043C0.583771 46.2094 0 44.7598 0 42.9555ZM12.1891 8.81317C11.7221 8.81317 11.3252 8.65896 10.9982 8.35053C10.6869 8.02669 10.5312 7.63345 10.5312 7.17082C10.5312 6.72361 10.6869 6.34579 10.9982 6.03737C11.3252 5.71352 11.7221 5.5516 12.1891 5.5516H17.84C18.2915 5.5516 18.6729 5.71352 18.9842 6.03737C19.3112 6.34579 19.4746 6.72361 19.4746 7.17082C19.4746 7.63345 19.3112 8.02669 18.9842 8.35053C18.6729 8.65896 18.2915 8.81317 17.84 8.81317H12.1891ZM28.1378 52C26.5188 52 24.9932 51.6916 23.561 51.0747C22.1288 50.4733 20.8679 49.6329 19.7782 48.5534C18.6885 47.4739 17.8323 46.2248 17.2096 44.806C16.5869 43.3873 16.2755 41.8683 16.2755 40.2491C16.2755 38.6299 16.5869 37.1186 17.2096 35.7153C17.8323 34.2966 18.6885 33.0475 19.7782 31.968C20.8679 30.8731 22.1288 30.0249 23.561 29.4235C24.9932 28.8066 26.5188 28.4982 28.1378 28.4982C29.7723 28.4982 31.3057 28.8066 32.7379 29.4235C34.1701 30.0249 35.431 30.8654 36.5207 31.9448C37.6104 33.0243 38.4588 34.2734 39.066 35.6922C39.6887 37.1109 40 38.6299 40 40.2491C40 41.8529 39.6887 43.3642 39.066 44.7829C38.4433 46.2017 37.5793 47.4508 36.474 48.5303C35.3843 49.6097 34.1234 50.4579 32.6912 51.0747C31.259 51.6916 29.7412 52 28.1378 52ZM24.3082 44.9217C24.3082 45.3998 24.5028 45.7236 24.892 45.8932C25.2968 46.0629 25.7093 46.0243 26.1296 45.7776L33.9054 41.2438C34.3257 40.997 34.5203 40.6578 34.4892 40.226C34.4581 39.7788 34.2168 39.4241 33.7653 39.1619L26.1296 34.6744C25.7093 34.4276 25.2968 34.3968 24.892 34.5819C24.5028 34.7515 24.3082 35.0753 24.3082 35.5534V44.9217Z" fill="white"/>
</svg>
