<svg width="52" height="40" viewBox="0 0 52 40" fill="none" xmlns="http://www.w3.org/2000/svg">
<path d="M43.8697 16.0881C44.6037 16.0881 45.2248 15.8364 45.7329 15.333C46.2552 14.8156 46.5163 14.2003 46.5163 13.4872C46.5163 12.76 46.2552 12.1447 45.7329 11.6413C45.2248 11.1379 44.6037 10.8862 43.8697 10.8862C43.1498 10.8862 42.5288 11.1379 42.0065 11.6413C41.4984 12.1447 41.2443 12.76 41.2443 13.4872C41.2443 14.2003 41.4984 14.8156 42.0065 15.333C42.5288 15.8364 43.1498 16.0881 43.8697 16.0881ZM6.64821 40C4.43214 40 2.76656 39.4546 1.65147 38.3639C0.550489 37.2872 0 35.6651 0 33.4976V11.5364C0 9.38297 0.550489 7.76787 1.65147 6.69114C2.76656 5.60042 4.43214 5.05506 6.64821 5.05506H12.5554C13.3882 5.05506 14.0022 4.95718 14.3974 4.76141C14.7926 4.55165 15.2231 4.18808 15.6889 3.67069L17.3827 1.78291C17.9191 1.20958 18.4978 0.769096 19.1189 0.461458C19.7541 0.153819 20.6151 0 21.702 0H30.1498C31.2367 0 32.0977 0.153819 32.7329 0.461458C33.3681 0.769096 33.9468 1.20958 34.4691 1.78291L36.1629 3.67069C36.4875 4.02028 36.7769 4.29995 37.0309 4.5097C37.2991 4.70547 37.6026 4.84531 37.9414 4.92921C38.2801 5.01311 38.7318 5.05506 39.2964 5.05506H45.3518C47.5537 5.05506 49.2123 5.60042 50.3274 6.69114C51.4425 7.76787 52 9.38297 52 11.5364V33.4976C52 35.6651 51.4425 37.2872 50.3274 38.3639C49.2123 39.4546 47.5537 40 45.3518 40H6.64821ZM26 33.8123C27.595 33.8123 29.0912 33.5186 30.4886 32.9313C31.886 32.344 33.114 31.526 34.1726 30.4772C35.2313 29.4284 36.057 28.2119 36.6498 26.8275C37.2427 25.4431 37.5391 23.9469 37.5391 22.3388C37.5391 20.2132 37.0239 18.2835 35.9935 16.5496C34.9631 14.8156 33.5727 13.4382 31.8225 12.4174C30.0722 11.3966 28.1314 10.8862 26 10.8862C24.3909 10.8862 22.8876 11.1799 21.4902 11.7672C20.0928 12.3545 18.8648 13.1725 17.8062 14.2213C16.7617 15.2701 15.9359 16.4866 15.329 17.871C14.7362 19.2554 14.4397 20.7446 14.4397 22.3388C14.4397 23.9469 14.7362 25.4431 15.329 26.8275C15.9359 28.2119 16.7617 29.4284 17.8062 30.4772C18.8648 31.526 20.0928 32.344 21.4902 32.9313C22.8876 33.5186 24.3909 33.8123 26 33.8123ZM26 30.624C24.4615 30.624 23.057 30.2535 21.7866 29.5123C20.5304 28.7712 19.5212 27.7784 18.759 26.5338C18.0109 25.2753 17.6368 23.8769 17.6368 22.3388C17.6368 20.8145 18.0109 19.4302 18.759 18.1856C19.5212 16.9271 20.5304 15.9273 21.7866 15.1862C23.057 14.431 24.4615 14.0535 26 14.0535C27.5385 14.0535 28.9359 14.431 30.1922 15.1862C31.4625 15.9273 32.4718 16.9271 33.2199 18.1856C33.968 19.4302 34.342 20.8145 34.342 22.3388C34.342 23.8769 33.968 25.2753 33.2199 26.5338C32.4718 27.7784 31.4625 28.7712 30.1922 29.5123C28.9359 30.2535 27.5385 30.624 26 30.624Z" fill="white"/>
</svg>
