<svg width="58" height="58" viewBox="0 0 58 58" fill="none" xmlns="http://www.w3.org/2000/svg">
<path d="M28.9997 54.9791C43.3476 54.9791 54.9788 43.3478 54.9788 28.9999C54.9788 14.652 43.3476 3.02075 28.9997 3.02075C14.6518 3.02075 3.02051 14.652 3.02051 28.9999C3.02051 43.3478 14.6518 54.9791 28.9997 54.9791Z" stroke="white" stroke-width="4" stroke-linecap="round" stroke-linejoin="round"/>
<path d="M43.128 37.1611C41.6956 39.6401 39.636 41.6984 37.1561 43.1293C34.6763 44.5601 31.8635 45.3131 29.0004 45.3125C26.1374 45.3119 23.3249 44.5578 20.8456 43.126C18.3663 41.6941 16.3076 39.635 14.8762 37.1554C13.4448 34.6758 12.6913 31.8632 12.6912 29.0001C12.6912 26.1371 13.4447 23.3245 14.876 20.8449C16.3074 18.3653 18.3661 16.3061 20.8454 14.8742C23.3246 13.4423 26.1371 12.6881 29.0001 12.6875M14.8747 37.1502L6.50098 41.9847" stroke="white" stroke-width="4" stroke-linecap="round" stroke-linejoin="round"/>
<path d="M51.4958 41.9919L29.0039 29.0072V3.02197" stroke="white" stroke-width="4" stroke-linecap="round" stroke-linejoin="round"/>
</svg>
