<svg width="41" height="52" viewBox="0 0 41 52" fill="none" xmlns="http://www.w3.org/2000/svg">
<path d="M10.9447 32.9366H30.1284C30.5834 32.9366 30.9653 32.791 31.2741 32.5C31.5991 32.1928 31.7616 31.8128 31.7616 31.3601C31.7616 30.9073 31.5991 30.5274 31.2741 30.2201C30.9653 29.9129 30.5834 29.7593 30.1284 29.7593H10.9447C10.4734 29.7593 10.0753 29.9129 9.7503 30.2201C9.44154 30.5274 9.28716 30.9073 9.28716 31.3601C9.28716 31.8128 9.44154 32.1928 9.7503 32.5C10.0753 32.791 10.4734 32.9366 10.9447 32.9366ZM10.9447 42.1287H30.1284C30.5834 42.1287 30.9653 41.9751 31.2741 41.6679C31.5991 41.3607 31.7616 40.9888 31.7616 40.5522C31.7616 40.0995 31.5991 39.7195 31.2741 39.4123C30.9653 39.1051 30.5834 38.9515 30.1284 38.9515H10.9447C10.4734 38.9515 10.0753 39.1051 9.7503 39.4123C9.44154 39.7195 9.28716 40.0995 9.28716 40.5522C9.28716 40.9888 9.44154 41.3607 9.7503 41.6679C10.0753 41.9751 10.4734 42.1287 10.9447 42.1287ZM7.55648 52C5.03765 52 3.14447 51.3694 1.87693 50.1082C0.625644 48.847 0 46.9471 0 44.4086V7.61567C0 5.09328 0.625644 3.19341 1.87693 1.91604C3.14447 0.638682 5.03765 0 7.55648 0H18.7449V17.8022C18.7449 20.8582 20.2806 22.3862 23.352 22.3862H41V44.4086C41 46.931 40.3662 48.8228 39.0987 50.084C37.8474 51.3613 35.9623 52 33.4435 52H7.55648ZM23.4251 19.0634C22.5313 19.0634 22.0844 18.6269 22.0844 17.7537V0.266791C22.5882 0.347637 23.1001 0.56592 23.6201 0.921642C24.1401 1.26119 24.6845 1.72201 25.2533 2.3041L38.6843 15.9104C39.2693 16.5087 39.7325 17.0585 40.0737 17.5597C40.415 18.0609 40.6262 18.5622 40.7075 19.0634H23.4251Z" fill="white"/>
</svg>
