<svg width="52" height="35" viewBox="0 0 52 35" fill="none" xmlns="http://www.w3.org/2000/svg">
<path d="M6.79919 35C4.66694 35 3.00068 34.4037 1.80041 33.2112C0.600136 32.0187 0 30.3376 0 28.1681V6.81034C0 4.65517 0.621317 2.98132 1.86395 1.78879C3.12071 0.596264 4.76578 0 6.79919 0H29.7597C31.8919 0 33.5229 0.596264 34.6525 1.78879C35.7822 2.98132 36.347 4.65517 36.347 6.81034V28.1681C36.347 30.3376 35.7469 32.0187 34.5466 33.2112C33.3464 34.4037 31.6801 35 29.5479 35H6.79919ZM39.2277 23.8578V11.1207L46.9377 4.35345C47.3048 4.02299 47.6861 3.76437 48.0815 3.57759C48.491 3.3908 48.8864 3.29741 49.2676 3.29741C50.0866 3.29741 50.7432 3.57759 51.2375 4.13793C51.7458 4.68391 52 5.4023 52 6.2931V28.7069C52 29.5977 51.7458 30.3233 51.2375 30.8836C50.7432 31.4296 50.0866 31.7026 49.2676 31.7026C48.8864 31.7026 48.491 31.6092 48.0815 31.4224C47.6861 31.2213 47.3048 30.9626 46.9377 30.6466L39.2277 23.8578Z" fill="white"/>
</svg>
